<svg xmlns="http://www.w3.org/2000/svg" height="553.747" width="520.453"><path d="M0 249.959v63.513c0 11.493 9.315 20.81 20.807 20.81h227.745c11.492 0 20.808-9.317 20.808-20.81v-53.667l28.352-29.789-276.84-.865C9.356 229.115 0 238.44 0 249.959" fill="#f3f2f1"/><path d="M235.788 267.63l-206.663-.953.022-6.352 206.662.955-.021 6.35M235.788 288.53l-206.663-.955.022-6.352 206.662.954-.021 6.352M235.788 308.897l-81.77-.402.026-6.352 81.77.402-.026 6.352" fill="#dadbd8"/><path d="M211.027 469.424v63.515c0 11.492 9.314 20.808 20.808 20.808h227.744c11.492 0 20.808-9.316 20.808-20.808v-53.667l28.353-29.79-276.841-.865c-11.516-.035-20.872 9.291-20.872 20.807" fill="#f3f2f1"/><path d="M447.805 485.448l-206.662-.954.021-6.354 206.661.956-.02 6.352M447.805 506.345l-206.662-.955.021-6.353 206.661.957-.02 6.351M447.805 526.713l-81.77-.402.025-6.35 81.77.402-.025 6.35" fill="#dadbd8"/><path d="M121.731 10.699h134.326c6.65 0 12.039 5.389 12.039 12.038V88.44c0 6.649-5.39 12.04-12.039 12.04H142.072c-6.65 0-12.04-5.391-12.04-12.04v-69.44l-8.3-8.3" fill="#f3f2f1"/><path d="M199.601 74.57v42.127c0 7.622-6.177 13.8-13.8 13.8H34.751c-7.622 0-13.801-6.178-13.801-13.8V81.103L2.145 61.345l183.614-.574c7.637-.024 13.842 6.161 13.842 13.8" fill="#dadbd8"/><path d="M43.216 86.292l137.068-.632-.013-4.213-137.068.633.013 4.212M43.216 100.152l137.068-.632-.013-4.213-137.068.633.013 4.212M43.216 113.663l54.234-.268-.017-4.212-54.234.266.017 4.214" fill="#f3f2f1"/><path d="M485.75 269.919v42.125c0 7.621-6.178 13.801-13.8 13.801H320.898c-7.623 0-13.802-6.18-13.802-13.801v-35.593l-18.805-19.759 183.615-.573c7.637-.024 13.844 6.161 13.844 13.8" fill="#dadbd8"/><path d="M329.364 281.64l137.068-.633-.013-4.212-137.068.633.013 4.212M329.364 295.5l137.068-.633-.013-4.214-137.068.635.013 4.212M329.364 309.01l54.233-.267-.016-4.214-54.234.268.017 4.212" fill="#f3f2f1"/><path d="M356.357 479.048c-22.577-21.984-22.948-55.99-17.074-85.54.98-4.932 1.292-10.252 4.362-14.217 3.074-3.966 9.066-6.039 13.166-3.22 3.398 2.336 4.302 6.884 5.782 10.765 1.971 5.164 5.416 9.735 9.816 13.016 2.89 2.156 6.634 3.797 10.034 2.588 4.664-1.66 6.137-7.488 6.914-12.427l4.343-27.612c.777-4.938 1.588-9.978 3.888-14.409 2.301-4.43 6.404-8.225 11.312-8.772 4.91-.545 10.27 3.11 10.47 8.101.083 2.078-.669 4.096-.866 6.166-.197 2.07.385 4.492 2.237 5.381 1.874.901 4.076-.173 5.788-1.376 5.907-4.148 10.414-9.999 14.687-15.852 4.275-5.852 8.48-11.873 13.988-16.55 5.51-4.675 12.605-7.935 19.736-7.178 7.133.757 13.945 6.35 14.595 13.577.653 7.25-4.56 13.643-9.898 18.548a111.64 111.64 0 01-26.506 18.103c-1.736.848-3.618 1.765-4.511 3.496-1.61 3.113.97 6.89 4.041 8.504 3.478 1.827 7.531 2.097 11.303 3.179 3.772 1.084 7.661 3.462 8.521 7.336 1.196 5.374-3.888 9.969-8.604 12.752a95.656 95.656 0 01-30.557 11.545c-3.847.733-7.856 1.272-11.2 3.343-3.344 2.072-5.836 6.216-4.637 9.98 1.2 3.768 5.554 5.624 9.473 5.54 3.915-.082 7.656-1.588 11.503-2.363 7.198-1.448 15.877.452 19.26 7.021 2.224 4.32 1.597 9.724-.599 14.079-2.195 4.356-5.77 7.83-9.476 10.97-12.952 10.967-28.544 18.953-45.164 21.833-16.619 2.878-31.433 1.968-46.127-6.307" fill="#f03d5f"/><path d="M352.36 501.015c3.004-11.596 7.861-25.076 14.717-39.34 6.83-14.28 15.612-29.312 25.34-44.72l7.244-11.382c2.386-3.729 4.754-7.43 7.291-10.904 5.047-6.973 10.43-13.294 15.728-19.133 5.296-5.843 10.536-11.196 15.47-16.165 4.95-4.959 9.65-9.496 14.109-13.448 8.898-7.94 16.818-13.482 22.41-17.064a164.184 164.184 0 016.519-4.006l1.725-.989c.392-.216.595-.321.603-.308.01.015-.18.147-.555.39-.418.266-.974.62-1.68 1.067-1.478.931-3.658 2.304-6.42 4.148a187.71 187.71 0 00-22.173 17.255c-4.42 3.97-9.081 8.523-13.997 13.501-4.911 4.988-10.122 10.351-15.39 16.196-5.266 5.84-10.614 12.15-15.622 19.091-2.52 3.46-4.862 7.13-7.251 10.87l-7.237 11.378c-9.718 15.396-18.503 30.377-25.355 44.595-6.875 14.201-11.776 27.601-14.85 39.136" fill="#17282f"/><path d="M407.216 394.676c-.063 0-.107-.777-.136-2.184-.037-1.405-.021-3.44.035-5.955.106-5.025.49-11.961.942-19.606.454-7.65.739-14.571.768-19.586.022-2.506.02-4.537-.001-5.938-.012-1.404.012-2.183.076-2.187.064-.004.16.767.281 2.17.13 1.4.234 3.433.294 5.947.137 5.031-.047 11.986-.5 19.642-.466 7.545-.887 14.369-1.211 19.582l-.327 5.938c-.081 1.401-.156 2.178-.221 2.177" fill="#17282f"/><path d="M472.587 393.207c-.01.062-.93.02-2.58-.112-1.652-.122-4.04-.31-6.998-.45-5.913-.324-14.094-.485-23.13-.268-9.038.234-17.207.792-23.104 1.367-2.954.267-5.335.547-6.983.73-1.648.19-2.564.266-2.576.202-.01-.064.89-.259 2.527-.561a122.26 122.26 0 016.965-1.027c5.896-.743 14.09-1.407 23.155-1.641 9.06-.216 17.272.049 23.19.542 2.963.224 5.35.512 6.994.747 1.644.243 2.545.405 2.54.47M368.048 460.636c-.03.007-.136-.281-.308-.846a1835.2 1835.2 0 01-.71-2.471c-.606-2.15-1.4-5.284-2.334-9.168-1.87-7.767-4.116-18.576-6.435-30.539-2.318-11.968-4.46-22.784-6.166-30.58-.84-3.79-1.534-6.908-2.047-9.227a654.856 654.856 0 01-.543-2.514c-.114-.576-.16-.883-.129-.894.032-.006.136.284.31.847.19.67.425 1.483.707 2.47.607 2.15 1.403 5.283 2.335 9.167 1.87 7.767 4.117 18.579 6.435 30.546 2.318 11.963 4.461 22.778 6.166 30.576.843 3.789 1.534 6.909 2.047 9.225.217 1.005.396 1.836.544 2.515.113.577.16.885.128.893" fill="#17282f"/><path d="M456.781 447.27c.003.033-.305.102-.893.207-.695.114-1.548.252-2.581.422-2.382.361-5.596.852-9.506 1.446-8.025 1.224-19.09 3.042-31.314 5.067-12.227 2.027-23.319 3.743-31.372 4.8-4.027.532-7.29.928-9.548 1.153-1.043.1-1.904.18-2.603.248-.597.047-.913.055-.916.023-.004-.032.305-.103.893-.21.694-.111 1.546-.25 2.583-.418 2.38-.364 5.592-.852 9.503-1.447 8.024-1.222 19.09-3.04 31.318-5.067 12.224-2.026 23.315-3.743 31.367-4.8 4.028-.531 7.29-.928 9.55-1.154 1.045-.099 1.903-.181 2.603-.246.598-.047.911-.055.916-.023" fill="#17282f"/><path d="M132.06 179.233c-4.12-3.196-5.963-8.856-5.102-14 .861-5.145 4.182-9.698 8.483-12.648 1.99-1.362 4.454-2.444 6.768-1.764 2.163.636 3.67 2.74 4.107 4.952.439 2.211-.035 4.508-.772 6.639-2.53 7.307-6.319 13.913-13.484 16.821M125.3 191.715c-8.125-7.411-19.972-10.514-30.685-8.034-2.728.632-5.798 2.074-6.248 4.838-.45 2.768 2.023 5.116 4.45 6.522 10.096 5.854 23.773 4.754 32.803-2.638M86.158 133.93c4.503-1.235 9.438-.123 13.423 2.31 3.986 2.433 7.103 6.085 9.6 10.03 4.833 7.633 6.535 17.891 6.75 26.923-10.025-.406-18.591-8.285-22.686-12.554-6.472-6.75-14.069-22.878-7.087-26.708" fill="#33535f"/><path d="M140.461 205.35c-.588-1.066-1.545-1.82-2.501-3.778-1.881-3.912-4.417-9.475-5.646-16.096-1.224-6.63-.395-12.89 1.251-16.977.803-2.055 1.703-3.61 2.426-4.602.717-.997 1.193-1.484 1.238-1.448.174.112-1.601 2.216-2.99 6.292-1.429 4.036-2.12 10.094-.93 16.555 1.198 6.464 3.591 12.004 5.302 15.977" fill="#17282f"/><path d="M140.556 205.473c-1.343-1.73-3.1-3.998-5.22-6.733a1815.014 1815.014 0 00-17.32-22.13 1801.019 1801.019 0 00-17.703-21.82l-5.397-6.591c-1.265-1.566-1.94-2.452-1.888-2.499.053-.045.829.755 2.186 2.243 1.36 1.484 3.29 3.665 5.646 6.386 4.714 5.439 11.102 13.062 17.947 21.65 6.846 8.593 12.85 16.522 17.101 22.33 2.125 2.904 3.82 5.274 4.964 6.93" fill="#17282f"/><path d="M100.873 189.613c-.015-.068.602-.253 1.74-.532.567-.15 1.267-.305 2.094-.4.825-.105 1.763-.281 2.813-.301 2.095-.164 4.607-.076 7.365.28a42.275 42.275 0 018.74 2.277 42.26 42.26 0 017.985 4.228c2.274 1.602 4.185 3.235 5.618 4.771.76.724 1.333 1.488 1.87 2.123.546.629.957 1.217 1.274 1.71.65.974.557 1.43.5 1.47-.16.116-1.181-1.936-4.15-4.796-1.469-1.443-3.385-2.983-5.633-4.504a45.245 45.245 0 00-7.83-4.058 45.331 45.331 0 00-8.512-2.3c-2.686-.397-5.138-.557-7.196-.486-4.12.102-6.637.712-6.678.518" fill="#17282f"/><path d="M324.55 529.825l-154-.712c-18.522-.084-33.47-15.165-33.391-33.686l1.632-386.083c.077-18.533 15.168-33.49 33.7-33.405l154.001.712c18.523.085 33.47 15.165 33.39 33.686l-1.63 386.084c-.08 18.534-15.17 33.49-33.703 33.404" fill="#17282f"/><path d="M326.272 89.975l-29.857-.138c-4.004-.018-7.266 3.362-7.282 7.546l-.025 5.416c-.016 4.186-3.277 7.565-7.281 7.546l-58.2-.269c-4.004-.017-7.235-3.427-7.218-7.613l.023-5.416c.017-4.186-3.215-7.595-7.219-7.612l-10.501-.05-26.133-.12c-12.979-.06-23.547 10.416-23.602 23.395l-1.593 376.845c-.055 12.972 10.413 23.534 23.385 23.594l153.694.71c12.977.059 23.546-10.415 23.601-23.394l1.593-376.847c.055-12.972-10.413-23.533-23.385-23.593" fill="#fafaf9"/><path d="M239.29 477.73c-.006 1.505-1.43 2.717-3.18 2.709-1.753-.008-3.167-1.235-3.16-2.74.006-1.503 1.43-2.717 3.182-2.709 1.75.009 3.165 1.234 3.159 2.74M249.117 477.775c-.006 1.503-1.43 2.717-3.182 2.71-1.751-.01-3.166-1.234-3.159-2.74.005-1.504 1.43-2.717 3.181-2.71 1.752.008 3.166 1.234 3.16 2.74M258.943 477.819c-.006 1.505-1.431 2.718-3.183 2.71-1.75-.008-3.165-1.233-3.159-2.739.007-1.505 1.431-2.717 3.182-2.71 1.752.007 3.166 1.233 3.16 2.739" fill="#33535f"/><path d="M194.915 271.645c2.504.358 153.578 29.99 153.578 29.99v-29.99H194.915M147.384 462.039s164.341-23.25 162.91-22.535c-1.43.716-162.91 0-162.91 0v22.535" fill="#e7e8e5"/><path d="M338.236 22.053c.192 0 .348 8.308.348 18.555 0 10.25-.156 18.557-.348 18.557-.192 0-.347-8.306-.347-18.557 0-10.247.155-18.555.347-18.555M403.997 64.76c.079.176-7.461 3.672-16.836 7.81-9.377 4.138-17.04 7.35-17.117 7.174-.077-.175 7.46-3.67 16.837-7.81 9.375-4.137 17.04-7.349 17.116-7.174M402.336-.004c.021.013-.103.257-.357.71l-1.14 1.967c-.995 1.704-2.486 4.14-4.35 7.138-3.733 5.99-9.106 14.13-15.192 23.009-6.088 8.881-11.518 16.968-15.354 22.887l-4.534 7.016-1.25 1.896c-.292.43-.456.649-.476.637-.02-.012.102-.257.357-.71l1.14-1.966c.995-1.704 2.485-4.14 4.35-7.137 3.731-5.991 9.107-14.132 15.194-23.014 6.085-8.878 11.516-16.964 15.352-22.882l4.533-7.016L401.86.633c.292-.429.455-.649.476-.637" fill="#17282f"/><path d="M494.527 156.97H193.933c-6.492 0-11.754 5.262-11.754 11.754v93.241c0 6.492 5.262 11.755 11.754 11.755h22.395c1.804 9.737 3.915 22.023 3.915 22.023l20.268-22.023h254.016c6.492 0 11.754-5.263 11.754-11.755v-93.241c0-6.492-5.262-11.755-11.754-11.755" fill="#f03d5f"/><path d="M370.508 207.547c0 .19-35.777.346-79.9.346-44.136 0-79.905-.156-79.905-.346 0-.192 35.769-.348 79.905-.348 44.123 0 79.9.156 79.9.348M370.508 193.213c0 .192-35.777.347-79.9.347-44.136 0-79.905-.155-79.905-.347 0-.192 35.769-.346 79.905-.346 44.123 0 79.9.154 79.9.346M370.508 221.721c0 .192-35.777.347-79.9.347-44.136 0-79.905-.155-79.905-.347 0-.192 35.769-.348 79.905-.348 44.123 0 79.9.156 79.9.348M315.377 236.404c0 .192-23.434.348-52.334.348-28.911 0-52.34-.156-52.34-.348 0-.192 23.429-.347 52.34-.347 28.9 0 52.334.155 52.334.347" fill="#f3f2f1"/><path d="M358.71 324.6H55.652a8.225 8.225 0 00-8.224 8.224v98.648a8.224 8.224 0 008.224 8.225h220.105l20.037 21.771s2.102-12.236 3.872-21.77h59.046a8.224 8.224 0 008.224-8.226v-98.648a8.225 8.225 0 00-8.224-8.224" fill="#33535f"/><path d="M346.823 375.47c0 .191-35.778.346-79.899.346-44.137 0-79.907-.155-79.907-.345 0-.192 35.77-.348 79.907-.348 44.121 0 79.899.156 79.899.348M346.823 361.137c0 .192-35.778.347-79.899.347-44.137 0-79.907-.155-79.907-.347 0-.192 35.77-.346 79.907-.346 44.121 0 79.899.154 79.899.346M346.823 389.644c0 .192-35.778.348-79.899.348-44.137 0-79.907-.156-79.907-.348 0-.19 35.77-.347 79.907-.347 44.121 0 79.899.156 79.899.347M291.693 404.328c0 .192-23.436.347-52.336.347-28.91 0-52.34-.155-52.34-.347 0-.192 23.43-.348 52.34-.348 28.9 0 52.336.156 52.336.348" fill="#f3f2f1"/><path d="M418.963 117.42c.178-2.45-2.007-5.83-4.034-7.772-2.025-1.943-3.281-4.577-2.225-8.495.817-3.028 2.736-2.801 3.495-4.581.561-1.317.325-2.82.442-4.248.396-4.901 5.791-8.744 10.555-7.52 1.34-4.661 5.688-8.303 10.512-8.805 4.825-.503 9.83 2.166 12.101 6.452 2.755-1.432 6.226-1.383 8.938.126 2.712 1.51 4.582 4.432 4.817 7.527 2.685-1.939 6.803-1.19 8.928 1.35 2.124 2.54 2.255 6.429.643 9.32-1.614 2.894-4.742 4.775-8.014 5.28-3.273.502-6.657-.271-9.621-1.75-2.964-1.477-5.544-3.628-7.893-5.963" fill="#17282f"/><path d="M498.481 214.27c0 31.131-25.841 56.367-57.72 56.367-31.877 0-57.72-25.236-57.72-56.366 0-31.131 25.843-56.368 57.72-56.368 31.879 0 57.72 25.237 57.72 56.368" fill="#dadbd8"/><path d="M498.717 214.317l-6.388-16.381-22.898 14.385 20.404 31.462s8.3-10.78 8.882-29.466" fill="#f68260"/><path d="M435.505 178.848c8.23.013 15.019-6.379 15.424-14.524.339-6.784.623-13.316.623-13.316s12.595-.913 13.759-13.227c1.161-12.313 1.32-40.79 1.32-40.79-13.895-7.295-30.683-6.566-43.876 1.905l-1.198.77-1.456 63.723c-.093 8.5 6.828 15.446 15.404 15.459" fill="#f8a58d"/><path d="M442.735 115.933a1.794 1.794 0 011.149 2.271 1.816 1.816 0 01-2.29 1.137 1.791 1.791 0 01-1.15-2.269 1.814 1.814 0 012.29-1.139" fill="#17282f"/><path d="M446.185 116.573c-.209.202-1.376-.804-3.09-.913-1.714-.135-3.012.695-3.188.464-.088-.101.129-.475.697-.853.557-.375 1.496-.712 2.565-.636 1.07.076 1.95.544 2.447.994.508.454.67.855.57.944M461.532 115.933a1.795 1.795 0 011.15 2.271 1.817 1.817 0 01-2.29 1.137 1.79 1.79 0 01-1.15-2.269 1.814 1.814 0 012.29-1.139" fill="#17282f"/><path d="M465.213 116.61c-.208.203-1.374-.802-3.089-.911-1.713-.136-3.013.693-3.19.464-.086-.103.131-.476.7-.855.558-.375 1.497-.712 2.563-.636 1.07.076 1.95.544 2.447.995.508.454.67.856.57.944M452.276 129.925c-.001-.133 1.076-.26 2.817-.357.452-.012.814-.085.864-.32.103-.263-.032-.752-.216-1.299l-1.073-3.558c-1.47-5.066-2.45-9.231-2.19-9.304.26-.075 1.66 3.972 3.13 9.037l.999 3.58c.122.525.384 1.15.093 1.865-.153.356-.528.594-.83.647-.303.064-.557.044-.773.037-1.741-.078-2.82-.194-2.821-.328" fill="#17282f"/><path d="M451.587 150.832s-7.912 0-15.84-5.876c0 0 3.106 9.181 15.608 9.072l.232-3.196" fill="#f68260"/><path d="M421.255 117.752c.013-.996-.756-1.856-1.76-1.903-2.322-.108-6.14.732-6.622 7.079-.685 9.068 8.168 6.975 8.206 6.716.026-.203.132-8.364.176-11.892" fill="#f8a58d"/><path d="M419.13 126.037c-.04-.032-.169.099-.447.202-.272.098-.73.148-1.194-.066-.94-.424-1.638-2.005-1.56-3.642.04-.827.274-1.6.618-2.23.329-.641.798-1.073 1.29-1.122a.817.817 0 01.91.504c.102.262.03.438.077.457.025.025.208-.136.163-.516a1.011 1.011 0 00-.316-.596c-.207-.193-.523-.308-.864-.296-.711-.004-1.394.592-1.772 1.281-.418.691-.7 1.558-.744 2.486-.08 1.832.734 3.612 2.028 4.09.632.215 1.182.063 1.477-.13.3-.203.363-.403.333-.422" fill="#f68260"/><path d="M438.068 111.744c.452.581 2.03.31 4.077.221 2.046-.164 3.646-.085 4.018-.717.424-.659-1.556-2.17-4.192-1.955-2.643.108-4.408 1.848-3.903 2.451M458.035 111.14c.248.792 1.749 1.03 3.416 1.019 1.666-.034 3.162-.311 3.39-1.108.235-.776-1.277-1.888-3.425-1.858-2.148.026-3.633 1.179-3.381 1.947" fill="#17282f"/><path d="M468.381 100.89s-7.472 3.617-17.196-1.237c-6.381-3.185-13.82-4.74-15.46-3.458-1.638 1.284-1.985 7.858-8.306 9.778 0 0 .434 12.546-4.567 12.098-5.003-.448-1.876-19.878-1.876-19.878l12.235-5.976 13.353-2.522 12.581 1.773 9.736 2.667-.5 6.754" fill="#17282f"/><path d="M384.641 173.483c13.074-13.448 36.09-11.98 36.09-11.98l19.076 13.657 10.818-12.595s11.368 1.248 22.022 6.814l.733.228-.01.152c8.369 4.544 20.218 15.441 31.506 26.018l-13.508 12.536-14.95 13.271s.058.096.025.267c-.156.804 2.08 19.06 4.368 32.933-13.618 12.995-30.974 18.556-50.243 15.18-6.115-1.072-9.076-2.563-14.739-4.05-8.37-2.194-14.437-9.451-15.189-18.073-1.019-11.628-1.795-26.026-1.795-26.026l-14.204-48.332" fill="#33535f"/><path d="M462.587 164.91c.046-.014.336.75.822 2.146.49 1.395 1.155 3.427 1.94 5.95 1.575 5.045 3.58 12.069 5.476 19.909 1.892 7.842 3.315 15.009 4.215 20.217.45 2.603.787 4.715.988 6.179.205 1.464.295 2.276.248 2.284-.047.008-.228-.79-.515-2.239l-1.204-6.135a505.971 505.971 0 00-4.406-20.144 504.43 504.43 0 00-5.272-19.93l-1.728-6.01c-.406-1.42-.61-2.212-.564-2.226" fill="#17282f"/><path d="M474.87 212.98c-.12-.148 5.583-4.996 12.738-10.825 7.159-5.832 13.057-10.438 13.179-10.29.121.15-5.583 4.996-12.74 10.828-7.155 5.83-13.056 10.436-13.178 10.287" fill="#17282f"/><path d="M394.55 232.703l-4.353-2.264 5.686-18.704 2.962 10.08-4.294 10.888" fill="#a7aaa9"/><path d="M398.845 221.815l-2.962-10.08 6.017-19.795c1.357 7.003-3.055 29.875-3.055 29.875" fill="#263f48"/><path d="M460.943 164.761c-4.872-1.412-8.73-1.989-9.928-2.148l.002-.061c2.4.401 7.871 1.37 9.926 2.21" fill="#a7aaa9"/><path d="M449.121 164.316l.74-1.952s.442.07 1.156.188l-.002.061c-.255-.033-.39-.048-.39-.048l-1.504 1.751" fill="#d8866f"/><path d="M444.965 176.05c-.098 0-.194 0-.289-.003l4.445-11.731 1.504-1.75s.135.014.39.047c1.198.159 5.056.736 9.928 2.148.142.059.269.116.376.172 6.225 3.283-9.086 11.118-16.354 11.118" fill="#263f48"/><path d="M418.85 162.364v-10.195s19.911 5.124 20.634 17.039c0 0 2.533-13.17 12.792-13.801l1.45 18.525-11.94 10.388h-12.1l-9.585-8.268-1.252-12.864" fill="#33535f"/><path d="M443.965 226.356c-.046-.003-.057-.784-.034-2.193.029-1.408.054-3.447.061-5.964.017-5.035-.14-11.991-.772-19.644a233.78 233.78 0 00-2.48-19.506l-1.044-5.872c-.256-1.385-.376-2.157-.33-2.168.049-.01.257.742.594 2.112.343 1.37.779 3.364 1.263 5.84.974 4.952 2.046 11.854 2.69 19.536.634 7.68.714 14.664.57 19.708-.068 2.523-.171 4.563-.283 5.97-.105 1.408-.187 2.184-.235 2.181M438.568 165.779c-.008.058-.452-.171-1.181.11-.762.246-1.442 1.192-1.999 2.546a57.503 57.503 0 00-3.788 11.016l-.105.454-.403-.242a82.13 82.13 0 01-3.637-2.33c-2.38-1.618-4.556-3.27-6.458-4.905-.956-.821-1.744-1.819-2.197-2.877-.447-1.06-.621-2.122-.67-3.076-.08-1.918.234-3.43.44-4.459.225-1.03.394-1.587.438-1.577.05.009-.032.586-.17 1.624-.125 1.033-.358 2.544-.22 4.38.08.913.274 1.905.707 2.872.443.966 1.16 1.849 2.095 2.633 1.884 1.573 4.07 3.21 6.424 4.81a92.638 92.638 0 003.601 2.325l-.506.212c1.098-4.599 2.712-8.434 4.052-11.052.329-.654.65-1.259 1.048-1.716.389-.464.864-.748 1.27-.863.846-.236 1.291.105 1.259.115M452.276 155.407c.048-.002.11.566.188 1.592.085 1.169.19 2.62.317 4.338.15 1.83.371 4 .746 6.392.145 1.182.56 2.464.238 3.914-.412 1.425-1.484 2.488-2.62 3.346-1.594 1.184-3.261 2.072-4.381 3.327l-.53.596-.051-.795c-.278-4.21-1.684-7.676-2.942-9.928-1.265-2.272-2.31-3.44-2.228-3.505.027-.024.312.244.787.787.47.545 1.113 1.38 1.804 2.506 1.383 2.234 2.916 5.758 3.244 10.095l-.583-.199c1.218-1.382 2.94-2.3 4.463-3.438 1.084-.808 2.041-1.81 2.379-2.962.284-1.166-.068-2.441-.214-3.649a69.278 69.278 0 01-.601-6.455 84.505 84.505 0 01-.099-4.361c.006-1.03.036-1.599.083-1.601M516.367 157.965c-.808.954-30.123 40.152-30.123 40.152l4.125 2.339 30.083-38.7-4.085-3.79" fill="#17282f"/><path d="M398.603 188.956s30.838 44.393 32.698 45.265c3.66 1.718 45.85-34.741 49.874-38.229.553-.741 1.698-2.304 3.945-5.413 0 0 3.33-15.232 6.881-14.063 3.552 1.17-1.946 7.74.367 13.528 2.313 5.787 12.908-8.016 13.332-9.256l2.733-3.57s2.866 8.123 2.671 11.515c-.623 10.868-10.904 23.792-10.904 23.792s-46.172 57.196-77.8 58.971c-9.11.512-25.297-25.336-36.12-44.717-6.535-11.704-3.273-26.45 7.557-34.348l4.766-3.475" fill="#f8a58d"/><path d="M505.915 190.665c-.104-.062.885-1.808 1.976-4.021 1.096-2.21 1.885-4.055 1.997-4.01.103.035-.517 1.963-1.625 4.195-1.102 2.234-2.256 3.895-2.348 3.836" fill="#f68260"/><path d="M393.383 167.292s-33.102 11.768-8.491 67.432l38.21-23.063-5.434-13.016-24.285-31.353" fill="#33535f"/><path d="M390.847 168.255s1.444-.239 3.985.336a16.17 16.17 0 014.34 1.832c1.583.948 3.227 2.281 4.823 3.956 3.213 3.348 6.21 8.021 8.99 13.433 2.802 5.412 5.414 11.576 8.095 18.053l2.341 5.664.119.287-.272.148c-11.055 6.028-20.681 11.67-27.487 15.895a475.216 475.216 0 00-7.976 5.044l-2.145 1.377c-.492.31-.756.463-.768.444-.013-.019.227-.207.695-.552.47-.341 1.164-.85 2.077-1.477 1.82-1.271 4.496-3.064 7.87-5.227 6.749-4.333 16.347-10.057 27.403-16.108l-.152.435-2.348-5.664c-2.678-6.475-5.266-12.63-8.02-18.027-2.734-5.399-5.662-10.05-8.778-13.388-1.551-1.67-3.14-3.004-4.67-3.963a16.56 16.56 0 00-4.206-1.901c-2.471-.644-3.923-.5-3.916-.597" fill="#17282f"/><path d="M462.052 85.728c.024-.005.08.193.164.58.061.39.145.975.096 1.73a9.068 9.068 0 01-2.524 5.771c-1.85 2.004-5.365 3.268-8.91 2.25-1.735-.507-3.487-1.563-4.56-3.307-.52-.863-.834-1.936-.682-3.01.144-1.053.673-2.12 1.636-2.751.963-.654 2.225-.635 3.201-.206.988.419 1.804 1.224 2.187 2.199.781 1.956.205 4.072-.875 5.541-2.297 3.04-6.445 3.286-8.744 1.9-1.213-.557-2.284-1.082-3.292-1.262a4.134 4.134 0 00-2.549.268c-1.307.629-1.836 1.325-1.896 1.249-.017-.017.116-.173.39-.46.135-.144.303-.324.545-.49.23-.18.497-.386.848-.545.668-.356 1.642-.59 2.726-.405 1.088.157 2.218.676 3.426 1.195.608.248 1.242.514 1.922.637a6.085 6.085 0 002.148-.04c1.47-.264 2.976-1.07 3.96-2.425.966-1.326 1.443-3.255.763-4.902-.596-1.609-2.836-2.698-4.38-1.674-.752.489-1.21 1.373-1.333 2.262-.126.896.126 1.799.584 2.571.937 1.55 2.549 2.559 4.156 3.04 3.294.983 6.601-.14 8.38-1.98 1.852-1.844 2.453-4.02 2.604-5.45.157-1.46-.067-2.277.009-2.286" fill="#33535f"/><path d="M454.844 136.007c.015.084-.41.26-1.144.292-.727.034-1.76-.13-2.768-.634-1.007-.51-1.75-1.244-2.156-1.849-.412-.607-.523-1.052-.447-1.09.176-.107 1.064 1.413 2.916 2.318 1.83.95 3.579.76 3.599.963M419.879 130.113c.06-.058.434.587-.048 1.504-.236.43-.683.894-1.359 1.078-.681.19-1.49-.032-2.07-.543-.587-.505-.913-1.256-.878-1.936.02-.676.305-1.224.61-1.596.638-.752 1.289-.821 1.3-.747.05.1-.47.336-.903 1.035-.448.66-.623 1.932.326 2.721.436.379 1.002.544 1.467.443.475-.095.859-.407 1.092-.717.484-.648.353-1.227.463-1.242" fill="#17282f"/><path d="M464.248 90.219c.061-.032.555.853.641 2.449.099 1.563-.354 3.887-1.978 5.772-1.636 1.875-3.874 2.652-5.435 2.776-1.59.14-2.537-.221-2.513-.288.014-.119.968.057 2.449-.199 1.459-.237 3.484-1.034 4.973-2.745 1.48-1.716 1.984-3.833 2.012-5.31.044-1.503-.265-2.422-.149-2.455" fill="#33535f"/><path d="M419.157 201.777c.086.172-8.706 4.694-19.634 10.096-10.932 5.406-19.86 9.647-19.944 9.475-.086-.172 8.705-4.692 19.636-10.097 10.928-5.403 19.858-9.646 19.942-9.474M411.144 186.656c.092.17-7.735 4.545-17.477 9.775-9.747 5.23-17.718 9.332-17.808 9.162-.091-.168 7.733-4.544 17.48-9.774 9.742-5.23 17.714-9.332 17.805-9.163M403.404 174.427c.045.088-1.463.952-3.916 2.317-2.621 1.461-5.921 3.304-9.57 5.34-3.634 2.07-6.917 3.944-9.525 5.43-2.436 1.393-3.956 2.235-4.008 2.153-.048-.08 1.38-1.071 3.756-2.574a225.115 225.115 0 019.435-5.614 226.886 226.886 0 019.683-5.17c2.514-1.254 4.104-1.965 4.145-1.882M432.685 171.536c-.018.079-1.044-.055-2.576-.693-1.53-.626-3.513-1.83-5.392-3.51-1.878-1.68-3.336-3.428-4.348-4.709-1.006-1.288-1.576-2.124-1.505-2.184.076-.063.78.665 1.88 1.867 1.103 1.194 2.6 2.868 4.436 4.506 1.832 1.64 3.7 2.863 5.136 3.584 1.433.734 2.399 1.032 2.37 1.139M452.136 164.313c.168.05-.64 2.219-2.77 3.996-2.114 1.799-4.39 2.224-4.41 2.05-.068-.199 1.984-.891 3.963-2.58 2.001-1.662 3.032-3.566 3.217-3.466M486.807 184.379c.001.024-.255.07-.744.138l-2.144.264c-1.866.207-4.568.467-7.912.727-6.69.533-15.942 1.056-26.17 1.428-10.23.357-19.498.496-26.206.441a252.1 252.1 0 01-7.943-.16l-2.157-.11c-.495-.034-.754-.062-.752-.086.001-.024.26-.042.753-.054l2.16-.02 7.937-.06c6.702-.071 15.959-.287 26.183-.644 10.22-.374 19.47-.818 26.161-1.224 3.272-.21 5.954-.38 7.92-.507l2.156-.133c.494-.023.755-.024.758 0M476.276 200.19c.005.047-.776.167-2.19.345-1.417.176-3.469.397-6.009.625-5.08.468-12.109.952-19.885 1.268-7.779.312-14.828.397-19.928.34-2.55-.021-4.613-.077-6.037-.139-1.426-.062-2.212-.12-2.211-.168 0-.048.79-.081 2.215-.102 1.542-.022 3.577-.048 6.032-.082 5.096-.069 12.132-.232 19.9-.542a768.492 768.492 0 0019.876-1.064l6.021-.406c1.421-.094 2.21-.124 2.216-.076M452.376 219.69c.008.094-1.679.342-4.419.623-2.74.283-6.536.587-10.733.796a213.48 213.48 0 01-10.76.275c-2.756-.008-4.459-.088-4.459-.181-.001-.099 1.7-.194 4.45-.311l10.736-.476 10.728-.592c2.745-.156 4.448-.23 4.457-.133M421.821 173.416c-.004.197-4.094.243-9.126.453-5.038.203-9.115.494-9.138.298-.021-.184 4.046-.788 9.108-.991 5.06-.212 9.163.055 9.156.24M478.072 172.696c-.001.19-5.307.327-11.85.301-6.543-.024-11.846-.2-11.846-.392.001-.19 5.305-.326 11.85-.301 6.542.024 11.846.199 11.846.392M480.119 253.83c.021.042-.414.287-1.215.697-.8.413-1.984.957-3.47 1.58-2.965 1.246-7.18 2.72-11.975 3.829-4.798 1.101-9.234 1.623-12.447 1.799-1.607.092-2.91.121-3.81.098-.9-.016-1.395-.048-1.397-.096-.001-.11 1.983-.188 5.17-.49a96.878 96.878 0 0012.328-1.988 96.73 96.73 0 0011.952-3.61c2.998-1.121 4.817-1.921 4.864-1.82M62.23 380.247c0 30.408 25.842 55.06 57.72 55.06s57.72-24.652 57.72-55.06c0-30.411-25.842-55.063-57.72-55.063s-57.72 24.652-57.72 55.063" fill="#dadbd8"/><path d="M108.19 247.488c-9.157.477-12.752 10.023-13.847 12.153-1.096 2.131-1.266 4.599-1.468 6.986-.2 2.388-.484 4.866-1.756 6.896-2.016 3.217-6.25 4.878-7.404 8.496-1.306 4.089 2.044 8.464 1.152 12.662-.48 2.254-2.125 4.108-2.707 6.338-.606 2.328.026 4.844 1.236 6.922 3.008 5.166 9.242 7.76 15.216 7.974 5.973.213 11.817-1.574 17.527-3.342M148.484 259.353c-.896 1.938-.05 4.292 1.355 5.899 1.406 1.608 3.294 2.7 4.957 4.039 1.663 1.34 3.19 3.106 3.384 5.233.177 1.952-.804 3.89-.537 5.832.684 4.992 8.644 6.49 9.068 11.51.282 3.342-3.15 6.414-2.199 9.63.365 1.233 1.32 2.188 1.983 3.29 2.258 3.75.726 8.925-2.546 11.833-3.273 2.909-7.824 3.933-12.197 4.13-3.679.166-7.857-.437-10.024-3.414-1.981-2.724-1.575-6.44-1.179-9.786 1.848-15.625 1.535-31.414 1.218-47.145" fill="#17282f"/><path d="M110.595 331.661c.07-8.209-.007-16.853-.007-16.853s-10.554-1.877-12.585-15.699c-1.938-13.182 1.348-41.534 1.348-41.534 15.291-6.031 32.507-3.698 43.22 8.609l-1.666 66.661c-.193 7.739-7.001 13.738-15.286 13.466-8.367-.274-15.09-6.83-15.024-14.65" fill="#f8a58d"/><path d="M102.224 279.345c-.044.934.71 1.742 1.685 1.806.973.062 1.799-.642 1.843-1.575.044-.935-.71-1.741-1.683-1.805-.975-.064-1.801.641-1.845 1.574" fill="#17282f"/><path d="M99.379 277.976c.216.235 1.568-.743 3.472-.716 3.583.52 3.517 1.067 3.497.765.104-.102-.116-.521-.719-.97-.594-.448-1.61-.89-2.796-.898-1.187-.008-2.19.418-2.768.858-.59.442-.794.857-.686.961M121.712 279.907c-.044.934.71 1.741 1.685 1.805.973.064 1.798-.64 1.843-1.573.043-.935-.711-1.744-1.684-1.807-.975-.064-1.8.641-1.844 1.575" fill="#17282f"/><path d="M119.237 278.635c.217.233 1.57-.744 3.473-.716 1.902-.002 3.288.996 3.498.764.102-.102-.114-.52-.72-.971-.593-.448-1.61-.888-2.796-.897-1.186-.008-2.189.417-2.767.857-.59.443-.794.857-.688.963M112.164 292.293c.01-.108-1.171-.326-3.086-.594-.485-.056-.945-.158-1.023-.491-.11-.352.1-.873.34-1.437.472-1.171.964-2.399 1.482-3.686 2.057-5.248 3.553-9.565 3.341-9.645-.212-.081-2.052 4.107-4.11 9.355-.495 1.293-.969 2.526-1.42 3.708-.19.55-.514 1.173-.274 1.905.127.364.48.632.79.72.311.099.585.107.826.124 1.928.127 3.125.15 3.134.041" fill="#17282f"/><path d="M110.588 314.808s9.275.707 18.534-4.715c0 0-4.592 9.427-18.386 7.976l-.148-3.261M112.916 296.89c.695-.897 1.9-1.38 3.09-1.238.825.099 1.655.507 2.15 1.185.494.679.588 1.636.125 2.272-.523.716-1.598.87-2.504.602-.906-.268-1.68-.876-2.417-1.48-.203-.168-.412-.343-.537-.57-.126-.228-.15-.522.011-.709" fill="#f68260"/><path d="M117.752 293.675c-.31-.022-.337 2.045-2.123 3.492-1.783 1.45-3.984 1.193-4.004 1.481-.03.13.487.408 1.417.444.911.043 2.247-.235 3.34-1.12 1.089-.888 1.566-2.083 1.648-2.93.088-.862-.137-1.378-.278-1.367M136.577 256.337c-5.047 7.2-18.413 14.604-27.983 16.322 1.117-1.471 6.996-5.095 8.113-6.567-4.339 3.24-10.547 7.575-16.302 7.867-.68.034-1.418.033-1.978-.308-.763-.464-.919-1.368-1.007-2.168-.372-3.372-.138-9.155.399-12.503.536-3.347 2.074-6.676 4.978-8.92 3.688-2.848 8.966-3.552 13.937-3.67 4.171-.102 8.47.145 12.282 1.65 3.812 1.505 7.072 4.479 7.63 8.055" fill="#17282f"/><path d="M151.052 288.592c.695-3.57 1.25-6.96 1.377-9.223.408-7.12-1.648-33.398-26.197-31.284l-.99 7.478s-3.795 25.592 12.085 25.78c0 0 .877 7.625 8.068 15.042 0 0 4.165-.126 5.657-7.793" fill="#17282f"/><path d="M137.327 281.343c1.478-.268 3.038-.21 4.438.336 1.4.545 2.626 1.606 3.216 2.988.594 1.385.515 2.998-.013 4.41-.527 1.411-1.47 2.635-2.556 3.68-.779.752-1.663 1.436-2.699 1.748-1.036.311-2.249.195-3.068-.513" fill="#f8a58d"/><path d="M138.039 290.297c-.17.054.462.954 1.814.606.652-.164 1.292-.728 1.684-1.436a6.554 6.554 0 00.763-2.44c.104-.92-.095-1.902-.593-2.606-.476-.716-1.262-1.145-1.926-1.166-1.388-.048-1.828.909-1.67.938.109.114.653-.376 1.56-.146.868.169 1.709 1.378 1.504 2.868-.183 1.514-.782 2.897-1.594 3.234-.846.42-1.448.027-1.542.148" fill="#f68260"/><path d="M140.007 253.64a8.47 8.47 0 006.272.824 8.465 8.465 0 005.056-3.801c.716-1.199 1.126-2.654.776-4.004-.48-1.848-2.276-3.095-4.124-3.575-2.679-.697-5.715-.03-7.74 1.859-2.026 1.888-2.898 4.977-1.999 7.596.899 2.618 3.603 4.552 6.368 4.393M142.244 293.439c-1.365.985-2.748 1.986-3.816 3.29-1.067 1.303-1.801 2.967-1.647 4.643.087.939.446 1.867.31 2.799-.187 1.282-1.24 2.233-1.935 3.326-1.796 2.831-1.024 6.802 1.247 9.266 2.27 2.466 5.721 3.578 9.07 3.688 1.943.064 3.983-.21 5.576-1.324 2.295-1.607 3.179-4.619 3.238-7.422" fill="#17282f"/><path d="M143.91 259.147c.073.042-.414 1.045-1.446 2.517-1.027 1.47-2.644 3.38-4.728 5.173-2.088 1.791-4.219 3.104-5.827 3.899-1.61.797-2.673 1.128-2.705 1.05-.1-.2 3.998-1.931 8.08-5.474 4.115-3.503 6.443-7.295 6.627-7.165M146.457 259.01c.076.01.027 1.315-.452 3.366-.473 2.047-1.461 4.82-3.118 7.585-1.667 2.762-3.656 4.932-5.243 6.311-1.587 1.383-2.717 2.037-2.76 1.975-.164-.172 4.17-3.184 7.407-8.643 3.306-5.417 3.937-10.659 4.166-10.593M93.159 270.123c.205-.014.468 2.296 1.264 5.022.78 2.734 1.788 4.828 1.608 4.926-.152.094-1.469-1.912-2.275-4.732-.821-2.815-.775-5.215-.597-5.216M151.965 317.296c.036-.085.619.621 2.03.652a4.152 4.152 0 002.349-.741c.8-.539 1.456-1.51 1.779-2.694.322-1.192.329-2.581.025-4.018-.287-1.448-.848-2.944-1.343-4.576-.481-1.624-.902-3.452-.593-5.374.308-1.954 1.573-3.538 2.192-5.293.63-1.75.376-3.69-.395-5.26a6.814 6.814 0 00-3.654-3.341c-.764-.326-1.555-.602-2.288-1-.73-.392-1.411-.938-1.826-1.636-.854-1.406-.82-2.931-.824-4.194.024-1.292.094-2.424-.137-3.392-.208-.966-.57-1.76-1.001-2.296-.896-1.098-1.844-1.021-1.799-1.11 0-.014.205-.046.583.044.374.081.924.337 1.422.892.499.55.919 1.376 1.174 2.384.28 1.014.241 2.22.249 3.477.027 1.25.056 2.695.819 3.885.746 1.224 2.3 1.732 3.876 2.356a7.44 7.44 0 014.014 3.627c.852 1.707 1.14 3.841.443 5.793-.695 1.914-1.912 3.436-2.176 5.179-.293 1.739.077 3.483.535 5.079.468 1.605 1.02 3.134 1.294 4.645.292 1.507.262 2.992-.118 4.264-.38 1.27-1.124 2.313-2.035 2.881-.903.571-1.839.738-2.575.688a3.145 3.145 0 01-1.596-.521c-.318-.22-.424-.4-.424-.4M142.339 316.359c.062-.04.174.426.821.721.581.281 1.879.299 2.588-.701.721-1.008.61-2.704-.216-4.174-.76-1.508-2.272-2.982-2.657-5.184-.204-1.064.05-2.276.741-3.076.652-.805 1.42-1.341 1.919-2 1.005-1.328 1.09-2.993.928-4.256-.171-1.294-.542-2.317-.764-3.026-.234-.708-.354-1.108-.308-1.127.042-.017.246.345.56 1.03.301.685.752 1.693.998 3.05.228 1.327.227 3.14-.904 4.716-.568.764-1.342 1.327-1.893 2.032-.57.687-.757 1.601-.592 2.544.313 1.916 1.73 3.37 2.539 5.003.864 1.606.977 3.562.045 4.757-.45.613-1.135.867-1.692.925-.57.056-1.068-.065-1.415-.273-.714-.436-.724-.983-.698-.961M90.075 312.875c-.035.029-.43-.347-1.086-1.084-.637-.746-1.609-1.838-2.326-3.506a6.994 6.994 0 01-.56-2.91c.025-1.07.342-2.275 1.175-3.23.826-.958 2.026-1.453 2.748-2.35.746-.888.841-2.194.552-3.432-.288-1.263-.87-2.394-1.463-3.523-.574-1.133-1.102-2.287-1.296-3.499-.213-1.204.053-2.469.686-3.366.615-.91 1.386-1.531 2.032-2.118 1.345-1.106 2.107-2.31 2.276-3.248.187-.938-.134-1.45-.057-1.469.016-.01.105.101.202.35.098.247.185.65.122 1.16-.09 1.03-.878 2.395-2.21 3.569-.63.61-1.355 1.244-1.881 2.069-.539.815-.74 1.864-.539 2.95.19 1.087.695 2.18 1.27 3.291.588 1.099 1.227 2.318 1.535 3.68.321 1.336.227 2.924-.7 4.014-.908 1.066-2.1 1.528-2.798 2.346-.72.799-1.034 1.851-1.079 2.83a6.646 6.646 0 00.44 2.705c.62 1.599 1.512 2.728 2.08 3.517.589.783.915 1.222.877 1.254" fill="#33535f"/><path d="M145.679 255.383c-.188.094-1.116-1.947-3.251-3.532-2.107-1.624-4.324-1.96-4.284-2.167-.027-.177 2.416-.137 4.703 1.613 2.306 1.724 3.01 4.063 2.832 4.086" fill="#f03d5f"/><path d="M147.604 242.616c.07-.044.516.477.876 1.513.363 1.019.57 2.592.119 4.231-.454 1.637-1.439 2.88-2.274 3.57-.841.703-1.492.92-1.529.849-.055-.094.49-.459 1.192-1.206.7-.737 1.53-1.913 1.941-3.398.41-1.486.302-2.922.079-3.914-.219-1.001-.5-1.593-.404-1.645" fill="#33535f"/><path d="M79.897 406.637l1.028-7.429.001.001a713.614 713.614 0 01-1.03 7.428" fill="#8f9192"/><path d="M60.298 377.17l6.389-16.382 22.897 14.387-20.402 31.462s-8.3-10.781-8.884-29.466" fill="#f68260"/><path d="M86.137 331.907c10.654-5.566 24.451-7.168 24.451-7.168 4.005 8.014 16.626 9.032 24.267 3.562l6.444-4.357s.998-.039 2.7.11c15.073 1.334 27.41 12.591 30.482 27.409 1.119 5.393 1.943 11.582 1.612 17.322-.837 14.566-15.922 15.883-15.922 15.883s-.776 14.397-1.796 26.027c-.758 8.689-5.266 15.18-13.192 18.817-5.902 2.707-9.156 3.959-16.818 5.183-19.318 3.09-37.875-4.243-50.11-17.35 2.287-13.876 4.474-31.838 4.318-32.642-.033-.17.025-.266.025-.266l-14.95-13.272-8.474-7.116s18.596-27.598 26.963-32.142" fill="#f03d5f"/><path d="M104.663 340.884c-.057.137-1.276-1.024-3.696-1.023-1.17.003-2.622.343-3.813 1.323-.593.476-1.098 1.15-1.697 1.823-.585.657-1.344 1.408-2.42 1.605-1.076.201-2.07-.272-2.816-.753-.768-.492-1.425-1.031-2.1-1.418-1.317-.808-2.818-.732-3.91-.341a5.173 5.173 0 00-2.274 1.568c-.42.52-.572.872-.63.848-.03-.01.036-.404.412-1.007.377-.592 1.12-1.377 2.317-1.869 1.157-.49 2.883-.641 4.4.244.744.408 1.42.947 2.146 1.397.717.454 1.524.803 2.333.647.807-.14 1.464-.74 2.038-1.377.582-.635 1.115-1.334 1.802-1.867 1.364-1.07 2.962-1.373 4.22-1.315 1.276.059 2.259.451 2.856.816.601.371.854.675.832.699M119.855 360.788c-.097.112-.882-1.377-3.176-2.15-1.11-.37-2.593-.511-4.034.035-.715.263-1.409.742-2.191 1.187-.766.436-1.724.903-2.806.747-1.085-.152-1.876-.919-2.428-1.615-.572-.71-1.022-1.43-1.537-2.013-.99-1.186-2.437-1.594-3.597-1.572a5.15 5.15 0 00-2.655.76c-.563.358-.821.642-.867.601-.027-.017.161-.37.711-.823.546-.438 1.502-.946 2.792-1.029 1.254-.096 2.937.312 4.092 1.636.575.625 1.043 1.35 1.587 2.01.536.658 1.188 1.247 2.003 1.358.81.124 1.624-.233 2.371-.655.755-.416 1.484-.906 2.305-1.192 1.634-.578 3.246-.354 4.419.103 1.19.464 1.997 1.148 2.446 1.685.451.544.594.911.565.927M153.599 331.641c-.027.147-1.464-.73-3.83-.217-1.142.252-2.488.89-3.445 2.101-.479.591-.83 1.356-1.272 2.14-.435.767-1.017 1.66-2.025 2.082-1.01.425-2.083.172-2.912-.142-.856-.316-1.611-.704-2.352-.94-1.46-.51-2.91-.117-3.896.495a5.173 5.173 0 00-1.889 2.015c-.3.596-.375.973-.436.961-.032-.003-.05-.401.189-1.07.244-.658.803-1.586 1.869-2.317 1.027-.725 2.681-1.238 4.352-.694.813.241 1.587.624 2.392.912.799.289 1.66.461 2.417.137.759-.308 1.274-1.033 1.7-1.777.435-.744.808-1.539 1.367-2.206 1.107-1.333 2.604-1.969 3.845-2.178 1.26-.212 2.304-.038 2.966.193.665.233.977.476.96.505M138.028 353.519c-.097.09-.667-1.066-2.393-1.716-.836-.315-1.962-.466-3.07-.096-.547.174-1.094.517-1.716.837-.607.312-1.379.65-2.238.487-.862-.162-1.46-.802-1.863-1.36-.418-.574-.738-1.143-1.108-1.606-.705-.932-1.779-1.294-2.663-1.326-1.846-.056-2.7.99-2.761.869-.028-.023.122-.296.56-.635.435-.33 1.195-.701 2.205-.726.981-.039 2.29.337 3.154 1.413.427.507.765 1.083 1.159 1.604.388.521.854.979 1.449 1.085 1.226.216 2.352-.886 3.631-1.253 1.302-.39 2.55-.152 3.446.252 1.852.852 2.279 2.184 2.208 2.17M103.687 371.945c-.097.091-.667-1.064-2.393-1.716-.836-.312-1.96-.465-3.069-.094-.546.174-1.095.517-1.717.837-.606.31-1.378.65-2.238.487-.861-.162-1.46-.802-1.862-1.362-.419-.572-.738-1.142-1.11-1.604-.703-.933-1.777-1.296-2.66-1.328-1.847-.056-2.701.991-2.763.871-.027-.023.122-.295.56-.635.435-.33 1.196-.702 2.206-.726.98-.039 2.29.336 3.153 1.412.427.506.765 1.084 1.16 1.605.387.521.854.977 1.449 1.085 1.226.215 2.351-.888 3.63-1.253 1.302-.39 2.551-.153 3.446.25 1.852.855 2.279 2.187 2.208 2.171M135.79 372.361c-.063.118-.977-.79-2.821-.849-.892-.027-2.005.193-2.934.904-.461.341-.868.843-1.353 1.347-.474.49-1.095 1.061-1.961 1.185-.867.127-1.64-.287-2.203-.685-.581-.406-1.067-.843-1.568-1.16-.968-.655-2.101-.65-2.948-.395-1.766.545-2.234 1.812-2.331 1.717-.034-.01.02-.318.324-.782.304-.452.903-1.05 1.851-1.4.916-.354 2.276-.423 3.44.317.57.34 1.075.776 1.617 1.141.536.37 1.125.65 1.722.559 1.23-.193 1.939-1.601 3.03-2.36 1.106-.79 2.365-.97 3.342-.877 2.03.208 2.864 1.33 2.792 1.338M125.185 387.004c-.063.119-.975-.79-2.82-.848-.892-.027-2.005.193-2.934.901-.46.344-.868.846-1.353 1.35-.474.49-1.095 1.061-1.961 1.184-.867.126-1.64-.286-2.202-.684-.582-.407-1.069-.843-1.569-1.16-.967-.656-2.101-.651-2.948-.395-1.765.545-2.234 1.81-2.331 1.717-.034-.012.02-.318.324-.782.305-.454.904-1.05 1.851-1.402.916-.353 2.276-.422 3.442.318.568.34 1.074.776 1.615 1.142.536.368 1.126.648 1.723.559 1.23-.195 1.937-1.601 3.03-2.361 1.105-.792 2.364-.97 3.341-.878 2.029.208 2.864 1.331 2.792 1.339M102.792 423.352c-.096.093-.682-1.055-2.417-1.681-.841-.303-1.967-.438-3.07-.052-.545.182-1.087.532-1.704.86-.603.32-1.37.67-2.232.52-.864-.15-1.47-.782-1.882-1.334-.427-.568-.754-1.133-1.13-1.589-.718-.924-1.797-1.27-2.681-1.29-1.848-.03-2.686 1.029-2.75.91-.028-.023.118-.297.552-.644.43-.336 1.185-.717 2.195-.757.98-.052 2.295.304 3.172 1.368.435.5.78 1.072 1.182 1.588.396.515.868.965 1.465 1.064 1.229.198 2.338-.92 3.613-1.304 1.296-.41 2.548-.19 3.449.202 1.864.827 2.31 2.152 2.238 2.139M128.995 431.084c-.065.116-.964-.806-2.809-.888-.892-.04-2.007.167-2.945.861-.466.337-.881.832-1.373 1.33-.48.483-1.109 1.045-1.977 1.157-.868.113-1.636-.308-2.192-.715-.576-.414-1.056-.857-1.553-1.182-.959-.669-2.091-.677-2.942-.435-1.772.521-2.259 1.78-2.355 1.685-.033-.013.025-.319.335-.777.312-.45.92-1.037 1.872-1.376.92-.34 2.28-.39 3.436.364.563.35 1.063.792 1.6 1.165.53.375 1.115.664 1.714.583 1.233-.178 1.96-1.574 3.063-2.32 1.115-.775 2.377-.936 3.352-.83 2.026.235 2.846 1.37 2.774 1.378" fill="#fafaf9"/><path d="M42.648 320.817c.81.955 30.124 40.154 30.124 40.154l-4.126 2.337-30.083-38.7 4.085-3.79" fill="#17282f"/><path d="M157.07 348.785s-27.496 47.416-29.354 48.29c-3.66 1.717-45.851-34.743-49.874-38.231-.554-.74-1.7-2.304-3.947-5.413 0 0-3.328-15.232-6.88-14.063-3.552 1.17 1.946 7.741-.367 13.528-2.314 5.788-12.908-8.016-13.333-9.256l-2.732-3.57s-2.865 8.123-2.672 11.515c.622 10.868 10.904 23.792 10.904 23.792s41.779 52.352 73.406 54.127c9.111.512 26.51-25.713 37.334-45.095 6.534-11.705 3.501-23.594-7.331-31.492l-5.155-4.132" fill="#f8a58d"/><path d="M53.102 353.519c-.092.06-1.248-1.603-2.35-3.838-1.108-2.232-1.727-4.157-1.624-4.196.112-.042.9 1.802 1.997 4.011 1.092 2.213 2.079 3.959 1.977 4.023" fill="#f68260"/><path d="M155.777 335.593c-1.086.654-26.655 48.119-26.655 48.119l32.911 25.78s8.562-21.09 13.078-38.237c1.226-4.654.594-17.09-1.136-21.887-2.459-6.817-6.166-5.119-11.719-9.113l-6.479-4.662" fill="#f03d5f"/><path d="M160.336 408.167c-.032 0-.25-.147-.637-.428l-1.014-.754.01-.109 1.645 1.29h-.004" fill="#353638"/><path d="M158.685 406.985l-.769-.57-1.25-.956.075-.112 1.954 1.529-.01.11M133.9 387.847c-1.615-1.253-3.28-2.545-4.985-3.87l-.23-.18.146-.253c1.99-3.474 4.11-7.169 6.29-10.974l.236-.411.01.005c-3.611 6.659-6.244 11.547-6.244 11.547l4.94 3.87c-.054.089-.109.18-.163.266m1.566-15.865c-.001-.002-.002-.003-.005-.004l.113-.196-.108.2" fill="#440d17"/><path d="M135.367 372.165l-.011-.005.104-.181c.003.001.004.002.005.004l-.098.182" fill="#3c3e40"/><path d="M156.665 405.459l-5.332-4.075-17.434-13.536.164-.265 22.678 17.764-.076.112" fill="#432923"/><path d="M166.588 335.595a1.324 1.324 0 00-.041-.048c.032.026.045.042.042.046l-.001.002" fill="#0b1214"/><path d="M157.657 336.947l-.34-.246c.303-.258.607-.501.914-.725 1.536-1.123 3.152-1.748 4.516-1.75l.169-.003c1.279 0 2.228.416 2.799.756.317.156.516.342.666.44.076.056.132.098.166.128l.041.048-.007.001c-.052 0-.354-.204-.93-.493a5.53 5.53 0 00-2.894-.608c-1.297.042-2.824.673-4.294 1.793-.27.204-.539.424-.806.659M160.34 408.165l-1.645-1.289-1.954-1.53-22.678-17.763-4.941-3.871s2.633-4.888 6.245-11.547l.098-.182.108-.2 9.706-16.851 4.452-7.687c1.416-2.382 2.609-4.717 4.049-6.63 1.13-1.538 2.316-2.867 3.537-3.914l.34.246c-1.196 1.05-2.364 2.394-3.478 3.956-1.391 1.896-2.539 4.206-3.943 6.618l-4.396 7.72-10.115 17.671c-2.136 3.71-4.21 7.316-6.166 10.716 8.818 6.97 16.493 13.033 22.038 17.416l6.462 5.188 1.713 1.412c.385.327.58.505.568.521" fill="#440d17"/><path d="M156.761 380.101c-.097.092-.666-1.064-2.394-1.716-.835-.312-1.96-.465-3.067-.094-.548.176-1.096.517-1.717.837-.607.31-1.38.65-2.239.487-.861-.162-1.46-.803-1.863-1.362-.418-.572-.737-1.142-1.109-1.605-.703-.932-1.777-1.293-2.661-1.327-1.847-.056-2.7.991-2.762.872-.028-.024.122-.296.56-.636.436-.33 1.195-.701 2.206-.726.981-.039 2.29.336 3.153 1.413.427.507.765 1.083 1.159 1.604.388.521.854.977 1.45 1.085 1.226.215 2.351-.888 3.631-1.253 1.301-.39 2.55-.152 3.445.25 1.852.855 2.279 2.187 2.208 2.171M171.804 373.963c-.119.061-.355-1.206-1.843-2.299-.72-.527-1.761-.976-2.928-.919-.574.02-1.194.203-1.88.343-.668.136-1.502.255-2.286-.135-.786-.388-1.19-1.165-1.426-1.813-.249-.664-.402-1.299-.634-1.844-.427-1.088-1.363-1.727-2.206-1.996-1.764-.55-2.868.227-2.894.093-.02-.029.197-.252.71-.461.508-.2 1.34-.352 2.32-.104.955.228 2.115.941 2.655 2.21.275.603.445 1.25.684 1.858.233.608.559 1.173 1.103 1.436 1.122.539 2.504-.22 3.834-.227 1.359-.024 2.496.54 3.25 1.171 1.553 1.321 1.605 2.72 1.541 2.687M172.577 354.341c-.118.062-.356-1.204-1.842-2.298-.72-.527-1.762-.976-2.928-.919-.575.02-1.195.203-1.88.344-.668.135-1.504.253-2.287-.136-.785-.388-1.19-1.165-1.427-1.812-.248-.664-.402-1.3-.634-1.844-.427-1.09-1.363-1.728-2.206-1.997-1.762-.551-2.866.226-2.894.093-.02-.028.197-.25.712-.461.508-.2 1.34-.351 2.318-.104.955.228 2.115.941 2.656 2.21.275.604.444 1.251.683 1.859.233.607.56 1.172 1.103 1.436 1.122.539 2.504-.221 3.834-.228 1.359-.024 2.498.543 3.251 1.172 1.553 1.32 1.605 2.719 1.541 2.685M165.295 399.448c-.119.063-.355-1.204-1.843-2.297-.72-.528-1.761-.978-2.928-.92-.575.021-1.195.202-1.88.344-.667.134-1.503.253-2.287-.136-.785-.387-1.188-1.166-1.425-1.811-.25-.665-.403-1.301-.635-1.845-.426-1.088-1.362-1.727-2.205-1.998-1.764-.55-2.868.227-2.895.094-.021-.028.198-.251.711-.46.508-.2 1.34-.352 2.32-.106.955.228 2.115.942 2.655 2.214.274.602.445 1.248.684 1.856.232.606.558 1.172 1.102 1.436 1.123.538 2.503-.222 3.835-.228 1.359-.024 2.497.542 3.25 1.172 1.554 1.321 1.605 2.718 1.54 2.685" fill="#fafaf9"/></svg>